<svg xmlns="http://www.w3.org/2000/svg" fill="#000000" viewBox="0 0 24 24">


<g transform="scale(1.2) translate(-2,-2)">

<path d="M2,8V3A1,1,0,0,1,3,2H21a1,1,0,0,1,1,1V21a1,1,0,0,1-1,1H16a1,1,0,0,1-1-1V9H3A1,1,0,0,1,2,8Z" fill="#3ab"/>

<path d="M2,8V3A1,1,0,0,1,3,2H21a1,1,0,0,1,.71.29L15,9H3A1,1,0,0,1,2,8Zm17,4a1,1,0,0,1,1-1h2v2H20A1,1,0,0,1,19,12Zm0,5a1,1,0,0,1,1-1h2v2H20A1,1,0,0,1,19,17Z" fill="#e55"/>

<path d="M12,5a1,1,0,0,0,1-1V2H11V4A1,1,0,0,0,12,5ZM7,5A1,1,0,0,0,8,4V2H6V4A1,1,0,0,0,7,5Z" fill="#000"/>

<path transform="translate(24,5) rotate(90)" d="M12,5a1,1,0,0,0,1-1V2H11V4A1,1,0,0,0,12,5ZM7,5A1,1,0,0,0,8,4V2H6V4A1,1,0,0,0,7,5Z" fill="black"/>

</g>

</svg>